<svg width="58" height="58" viewBox="0 0 58 58" fill="none" xmlns="http://www.w3.org/2000/svg">
<path d="M55.1 31.9C56.84 31.9 58 30.74 58 29C58 27.55 56.84 26.1 55.1 26.1H52.2V20.3H55.1C56.84 20.3 58 19.14 58 17.4C58 15.95 56.84 14.5 55.1 14.5H52.2V11.6C52.2 8.41 49.59 5.8 46.4 5.8H43.5V2.9C43.5 1.45 42.34 0 40.6 0C39.15 0 37.7 1.16 37.7 2.9V5.8H31.9V2.9C31.9 1.45 30.74 0 29 0C27.26 0 26.1 1.16 26.1 2.9V5.8H20.3V2.9C20.3 1.45 19.14 0 17.4 0C15.66 0 14.5 1.16 14.5 2.9V5.8H11.6C8.41 5.8 5.8 8.41 5.8 11.6V14.5H2.9C1.16 14.5 0 15.66 0 17.4C0 18.85 1.16 20.3 2.9 20.3H5.8V26.1H2.9C1.16 26.1 0 27.26 0 29C0 30.45 1.16 31.9 2.9 31.9H5.8V37.7H2.9C1.16 37.7 0 38.86 0 40.6C0 42.05 1.16 43.5 2.9 43.5H5.8V46.4C5.8 49.59 8.41 52.2 11.6 52.2H14.5V55.1C14.5 56.55 15.66 58 17.4 58C19.14 58 20.3 56.84 20.3 55.1V52.2H26.1V55.1C26.1 56.55 27.26 58 29 58C30.74 58 31.9 56.84 31.9 55.1V52.2H37.7V55.1C37.7 56.55 38.86 58 40.6 58C42.05 58 43.5 56.84 43.5 55.1V52.2H46.4C49.59 52.2 52.2 49.59 52.2 46.4V43.5H55.1C56.84 43.5 58 42.34 58 40.6C58 39.15 56.84 37.7 55.1 37.7H52.2V31.9H55.1ZM46.4 46.4H11.6V11.6H46.4V46.4Z" fill="url(#paint0_linear_2_271)"/>
<path d="M38.6004 17.4004H19.4004C18.2958 17.4004 17.4004 18.2958 17.4004 19.4004V38.6004C17.4004 39.705 18.2958 40.6004 19.4004 40.6004H38.6004C39.705 40.6004 40.6004 39.705 40.6004 38.6004V19.4004C40.6004 18.2958 39.705 17.4004 38.6004 17.4004Z" fill="url(#paint1_linear_2_271)"/>
<defs>
<linearGradient id="paint0_linear_2_271" x1="51.5" y1="50.5" x2="-5.72531" y2="-5.2818" gradientUnits="userSpaceOnUse">
<stop stop-color="#00ACD4"/>
<stop offset="1" stop-color="#81EAEE"/>
</linearGradient>
<linearGradient id="paint1_linear_2_271" x1="51.5" y1="50.5" x2="-5.72531" y2="-5.2818" gradientUnits="userSpaceOnUse">
<stop stop-color="#00ACD4"/>
<stop offset="1" stop-color="#81EAEE"/>
</linearGradient>
</defs>
</svg>
