<svg width="56" height="56" viewBox="0 0 56 56" fill="none" xmlns="http://www.w3.org/2000/svg">
<path d="M50.9364 23.5888C50.2576 23.3729 49.7523 22.81 49.5564 22.1252C49.0424 20.3288 48.2636 18.5534 47.3221 16.9013C46.9839 16.3079 46.9378 15.5867 47.2314 14.97L48.9527 11.3553C49.3168 10.5908 49.1599 9.67994 48.5612 9.08121L46.6388 7.15879C46.0401 6.56006 45.1292 6.40324 44.3647 6.76728L40.75 8.48857C40.1333 8.78223 39.4127 8.73449 38.8157 8.40261C37.2228 7.51717 35.6102 6.89372 33.8778 6.43232C33.1895 6.249 32.6271 5.74239 32.4112 5.06362L31.2434 1.39359C30.9793 0.563639 30.2085 0 29.3376 0H26.6009C25.7598 0 25.0087 0.526136 24.7213 1.31651L23.3349 5.12908C23.1014 5.77123 22.5536 6.24157 21.8977 6.43307C20.1418 6.94572 18.5097 7.72639 16.8977 8.67149C16.3085 9.01696 15.5867 9.06223 14.97 8.76857L11.3058 7.02373C10.5658 6.67134 9.68569 6.80614 9.08507 7.36387L7.23627 9.0806C6.59583 9.6753 6.4157 10.617 6.79146 11.4061L8.48857 14.97C8.78223 15.5867 8.73449 16.3073 8.40261 16.9043C7.50836 18.513 6.88134 20.1419 6.4186 21.8939C6.24411 22.5546 5.77123 23.1014 5.12908 23.3349L1.31651 24.7213C0.526137 25.0087 0 25.7598 0 26.6009V29.3991C0 30.2402 0.526136 30.9913 1.31651 31.2787L5.12908 32.6651C5.77123 32.8986 6.24319 33.4457 6.42844 34.1034C6.92963 35.8828 7.67282 37.6225 8.45824 39.1228C8.76208 39.7031 8.79204 40.3927 8.51039 40.9842L6.76728 44.6447C6.40324 45.4092 6.56006 46.3201 7.15879 46.9188L9.08121 48.8412C9.67994 49.4399 10.5908 49.5968 11.3553 49.2327L14.97 47.5114C15.5867 47.2178 16.3085 47.263 16.8977 47.6085C18.5155 48.557 20.1536 49.3399 21.9166 49.8524C22.5624 50.0402 23.1041 50.4982 23.3435 51.1267L24.7093 54.712C25.0048 55.4875 25.7484 56 26.5783 56H29.3991C30.2402 56 30.9913 55.4739 31.2787 54.6835L32.8102 50.4718C32.9554 50.0727 33.2501 49.7682 33.6571 49.6468C34.6483 49.3513 34.9795 48.1395 34.2482 47.4082L32.1031 45.2631C31.6378 44.7978 30.974 44.5989 30.3212 44.6809C20.1082 45.9648 11.2 38.2924 11.2 28C11.2 18.76 18.76 11.2 28 11.2C37.9976 11.2 45.6485 19.8049 44.6616 29.2141C44.5939 29.8598 44.7929 30.5129 45.2519 30.9719L48.149 33.869C48.6686 34.3886 49.6199 34.1998 49.7671 33.4799C49.8533 33.0581 50.1186 32.6714 50.5288 32.5408L54.6064 31.2434C55.4364 30.9793 56 30.2085 56 29.3376V26.6624C56 25.7915 55.4364 25.0207 54.6064 24.7566L50.9364 23.5888Z" fill="url(#paint0_linear_2_276)"/>
<path d="M54.88 48.72L39.3375 33.1775C38.7493 32.5893 38.6044 31.7004 38.8554 30.9072C41.1206 23.7481 35.6181 16.623 28.5774 16.3846C27.0497 16.3328 26.534 18.134 27.6149 19.2149L30.24 21.84C32.48 24.08 32.48 27.72 30.24 29.68C28.28 31.92 24.36 31.92 22.4 29.68L19.6665 27.0983C18.5969 26.0882 16.8743 26.5742 16.8963 28.0453C16.9934 34.5448 23.4484 40.5786 30.9538 38.4979C31.7212 38.2852 32.5642 38.4442 33.1272 39.0072L48.72 54.6C50.4 56.28 52.92 56.28 54.6 54.6C56.28 53.2 56.28 50.4 54.88 48.72Z" fill="url(#paint1_linear_2_276)"/>
<defs>
<linearGradient id="paint0_linear_2_276" x1="56" y1="55.9999" x2="0.277117" y2="-0.274401" gradientUnits="userSpaceOnUse">
<stop stop-color="#00ACD4"/>
<stop offset="1" stop-color="#81EAEE"/>
</linearGradient>
<linearGradient id="paint1_linear_2_276" x1="56" y1="55.9999" x2="0.277117" y2="-0.274401" gradientUnits="userSpaceOnUse">
<stop stop-color="#00ACD4"/>
<stop offset="1" stop-color="#81EAEE"/>
</linearGradient>
</defs>
</svg>
