<svg width="60" height="60" viewBox="0 0 60 60" fill="none" xmlns="http://www.w3.org/2000/svg">
<g clip-path="url(#clip0_2_265)">
<path d="M58.75 57.5001C58.0596 57.5001 57.4999 56.9405 57.4999 56.2501V21.25C57.4999 20.56 56.9399 20 56.2499 20H48.7499C48.0599 20 47.4998 20.56 47.4998 21.25V55.5C47.4998 56.6046 46.6044 57.5 45.4998 57.5H44.4998C43.3952 57.5 42.4998 56.6046 42.4998 55.5V36.25C42.4998 35.56 41.9398 35 41.2498 35H33.7498C33.0598 35 32.4997 35.56 32.4997 36.25V55.5C32.4997 56.6046 31.6043 57.5 30.4997 57.5H29.4997C28.3951 57.5 27.4997 56.6046 27.4997 55.5V31.25C27.4997 30.56 26.9396 30 26.2496 30H18.7496C18.0596 30 17.4996 30.56 17.4996 31.25V55.5C17.4996 56.6046 16.6042 57.5 15.4996 57.5H14.4996C13.395 57.5 12.4996 56.6046 12.4996 55.5V43.75C12.4996 43.06 11.9395 42.5 11.2495 42.5H3.75C3.06 42.5 2.49996 43.06 2.49996 43.75V56.2501C2.49996 56.9404 1.94035 57.5 1.25004 57.5C0.560039 57.5001 0 58.06 0 58.75C0 59.44 0.560039 60.0001 1.25004 60.0001H3.75H11.25H18.75H26.25H33.75H41.25H48.75H56.25H58.75C59.44 60.0001 60 59.44 60 58.75C60 58.06 59.44 57.5001 58.75 57.5001Z" fill="url(#paint0_linear_2_265)"/>
<path d="M52.5 0C49.7425 0 47.5 2.2425 47.5 5.00004C47.5 5.37846 47.5452 5.74517 47.6286 6.09743C47.8383 6.9836 47.758 7.97455 47.1141 8.61847L41.1186 14.614C40.4745 15.258 39.4834 15.3382 38.5971 15.1285C38.2449 15.0452 37.8783 15 37.5 15C36.4067 15 35.4021 15.36 34.5831 15.9622C33.9374 16.4369 33.1299 16.7298 32.3592 16.5099L27.6037 15.1531C27.5349 15.1335 27.5001 15.0715 27.5001 15C27.5001 12.2425 25.2576 9.99996 22.5 9.99996C19.7425 9.99996 17.5 12.2425 17.5 15C17.5 15.1844 17.5104 15.3661 17.5306 15.5448C17.633 16.4525 17.4431 17.4334 16.729 18.003L11.2388 22.3829C10.5746 22.9127 9.65661 22.9234 8.83999 22.6888C8.41416 22.5664 7.96518 22.5 7.50004 22.5C4.7425 22.5 2.5 24.7425 2.5 27.5C2.5 30.2576 4.7425 32.5001 7.50004 32.5001C10.2576 32.5001 12.5001 30.2576 12.5001 27.5C12.5001 27.2188 12.4746 26.9439 12.4269 26.6766C12.255 25.7138 12.4132 24.643 13.1778 24.0331L18.2989 19.9487C19.0119 19.38 20.0086 19.4105 20.8675 19.7171C21.3782 19.8994 21.9265 20.0002 22.5002 20.0002C23.7788 20.0002 24.9394 19.512 25.8197 18.7159C26.4948 18.1054 27.4034 17.6969 28.2788 17.9467L31.7865 18.9473C32.2403 19.0768 32.5001 19.5282 32.5001 20.0002C32.5001 22.7577 34.7426 25.0002 37.5002 25.0002C40.2577 25.0002 42.5002 22.7577 42.5002 20.0002C42.5002 19.6217 42.455 19.255 42.3716 18.9028C42.1619 18.0166 42.2422 17.0256 42.8861 16.3817L48.8797 10.3882C49.5257 9.7421 50.5211 9.66374 51.4105 9.87325C51.7603 9.95565 52.1244 10.0002 52.5002 10.0002C55.2577 10.0002 57.5002 7.7577 57.5002 5.00016C57.5001 2.2425 55.2576 0 52.5 0Z" fill="url(#paint1_linear_2_265)"/>
</g>
<defs>
<linearGradient id="paint0_linear_2_265" x1="60" y1="60" x2="23.3982" y2="4.55405" gradientUnits="userSpaceOnUse">
<stop stop-color="#00ACD4"/>
<stop offset="1" stop-color="#81EAEE"/>
</linearGradient>
<linearGradient id="paint1_linear_2_265" x1="52.5" y1="32.5" x2="16.6917" y2="-45.69" gradientUnits="userSpaceOnUse">
<stop stop-color="#00ACD4"/>
<stop offset="1" stop-color="#81EAEE"/>
</linearGradient>
<clipPath id="clip0_2_265">
<rect width="60" height="60" fill="white"/>
</clipPath>
</defs>
</svg>
