<svg width="51" height="51" viewBox="0 0 51 51" fill="none" xmlns="http://www.w3.org/2000/svg">
<path d="M40.7381 30.5942C40.0843 30.5942 39.5358 30.6997 39.0247 30.7749C38.4989 30.8523 37.9878 30.6374 37.6125 30.261L32.2422 24.8744C31.464 24.0938 31.464 22.8308 32.2422 22.0502L36.6095 17.6697C36.8198 17.4587 37.0746 17.2974 37.3552 17.1975L44.1409 14.7824C44.5683 14.6303 44.9313 14.3374 45.1703 13.9517L50.6418 5.12309C50.8957 4.61367 50.8957 3.84953 50.6418 3.59482L47.5945 0.538285C47.0866 0.0288622 46.3248 0.0288622 45.8169 0.283574L36.7857 5.52804C36.3857 5.76029 36.0786 6.12398 35.9167 6.55719L33.2714 13.6327C33.1715 13.8998 33.0157 14.1425 32.8144 14.3444L28.4931 18.6788C27.6918 19.4825 26.383 19.4591 25.6109 18.6273L20.703 13.3399C20.3597 12.97 20.1644 12.4825 20.2358 11.9829C20.3111 11.4569 20.4228 10.8931 20.4228 10.2173C20.4228 4.83969 16.2367 0.637729 11.2637 0.0663032C9.71283 -0.111898 9.13873 1.70085 10.2409 2.80635L11.5349 4.10424C13.5664 6.14194 13.5664 9.19847 11.5349 11.2362C9.50333 13.2739 6.45604 13.2739 4.42451 11.2362L2.7621 9.77714C1.65235 8.80316 -0.0634804 9.3584 0.0132382 10.833C0.311099 16.5579 5.59374 21.2606 11.6384 20.1761C12.3643 20.0459 13.1296 20.2223 13.6502 20.7446L18.7611 25.8709C19.5392 26.6515 19.5392 27.9145 18.7611 28.6951L17.9546 29.5039C17.4406 30.0195 16.6872 30.1802 15.9599 30.1488C14.5903 30.0897 13.2885 30.6182 12.2967 31.6131L1.8851 42.0562C-0.146426 44.0939 -0.400367 47.1505 1.37722 49.1882C3.40875 51.4806 6.70998 51.4806 8.74151 49.4429L19.407 38.745C20.3616 37.7875 20.8856 36.398 20.8711 35.1179C20.8625 34.3621 21.0135 33.5677 21.5471 33.0325L22.3077 32.2696C23.0892 31.4857 24.3588 31.4857 25.1404 32.2696L30.218 37.3626C30.7516 37.8978 30.9297 38.6925 30.8708 39.446C30.8344 39.9126 30.8344 40.3826 30.8344 40.7827C30.8344 46.1603 35.0205 50.3623 39.9935 50.9337C41.5443 51.1119 42.1184 49.2992 41.0163 48.1937L39.7223 46.8958C37.6908 44.8581 37.6908 41.8015 39.7223 39.7638C41.7538 37.7261 44.8011 37.7261 46.8327 39.7638L48.1929 41.1283C49.2806 42.2192 51.0861 41.6836 50.9724 40.1472C50.5857 34.9191 46.1793 30.5942 40.7381 30.5942Z" fill="url(#paint0_linear_2_317)"/>
<defs>
<linearGradient id="paint0_linear_2_317" x1="51" y1="50.9999" x2="0.252376" y2="-0.249903" gradientUnits="userSpaceOnUse">
<stop stop-color="#00ACD4"/>
<stop offset="1" stop-color="#81EAEE"/>
</linearGradient>
</defs>
</svg>
