<svg width="18" height="18" viewBox="0 0 18 18" fill="none" xmlns="http://www.w3.org/2000/svg">
<g clip-path="url(#clip0_2_928)">
<path fill-rule="evenodd" clip-rule="evenodd" d="M4.9251 2.45525C4.9021 1.41126 4.15554 0.616089 2.94323 0.616089C1.73092 0.616089 0.938354 1.41126 0.938354 2.45525C0.938354 3.47762 1.70749 4.29568 2.89723 4.29568H2.91987C4.15554 4.29568 4.9251 3.47762 4.9251 2.45525ZM4.69174 5.74939H1.14795V16.397H4.69174V5.74939ZM13.3922 5.49939C15.7241 5.49939 17.4724 7.02153 17.4724 10.292L17.4722 16.397H13.9286V10.7006C13.9286 9.26972 13.4158 8.29336 12.1329 8.29336C11.1539 8.29336 10.5707 8.95157 10.3146 9.58731C10.2209 9.81514 10.1979 10.1326 10.1979 10.4508V16.3973H6.65369C6.65369 16.3973 6.7004 6.74882 6.65369 5.7497H10.1979V7.25784C10.6682 6.53285 11.5106 5.49939 13.3922 5.49939Z" fill="#9EA6B1"/>
</g>
<defs>
<clipPath id="clip0_2_928">
<rect width="16.534" height="17.0132" fill="white" transform="translate(0.938354 0.00012207)"/>
</clipPath>
</defs>
</svg>
