<svg width="118" height="32" viewBox="0 0 118 32" fill="none" xmlns="http://www.w3.org/2000/svg">
<path d="M109.192 24.1127C109.192 25.4648 109.192 26.8169 109.757 28.0564C110.096 28.8451 110.999 29.4085 111.79 29.5211C113.257 29.7465 114.612 29.4085 115.855 28.8451C115.967 29.2958 116.08 29.7465 116.08 30.3099C114.5 30.7606 112.806 31.2113 110.999 30.8733C109.87 30.7606 108.854 30.0845 108.402 29.0704C107.612 27.7183 107.499 26.2535 107.499 24.7887C107.499 21.9718 107.499 19.2676 107.499 16.338H103.885V15.0986H107.499V10.2535H109.079V15.0986H115.516V16.338H109.079V24.1127H109.192Z" fill="#00ACD4"/>
<path d="M34.5531 15.0986C36.4727 14.6479 38.6182 14.6479 40.6507 15.2112C41.667 15.5493 42.7962 16.1126 43.2478 17.1267C43.5866 17.5774 43.6995 18.2535 43.8124 18.8169C43.2478 18.8169 42.7962 18.8169 42.3445 18.8169C42.3445 17.8028 41.667 17.1267 40.7636 16.676C39.0699 15.8873 37.1502 15.8873 35.3435 16.2253C34.4402 16.4507 33.4239 16.7887 32.7464 17.5774C32.1818 18.1408 32.1818 19.0422 32.4077 19.831C32.6335 20.507 33.311 20.9577 33.9885 21.2957C35.2306 21.7464 36.5856 21.8591 37.8278 22.0845C39.4086 22.3098 41.1024 22.5352 42.5703 23.2112C43.4737 23.6619 44.1512 24.338 44.2641 25.2394C44.6029 26.4788 44.377 27.9436 43.4737 28.9577C42.3445 30.0845 40.7636 30.6479 39.1828 30.8732C37.0373 31.0986 34.8919 30.9859 32.9722 29.9718C31.6172 29.2957 30.601 27.9436 30.488 26.3662C31.0526 26.3662 31.5043 26.3662 32.0689 26.3662C32.2947 27.3802 32.9722 28.2817 33.8756 28.7324C35.5694 29.6338 37.6019 29.8591 39.5215 29.4084C40.5378 29.1831 41.5541 28.845 42.3445 27.9436C43.2478 27.0422 43.2478 25.4648 42.3445 24.4507C41.7799 23.8873 40.9895 23.6619 40.312 23.4366C38.0536 22.9859 35.7952 22.9859 33.6498 22.3098C32.7464 21.9718 31.7301 21.2957 31.3914 20.3943C30.9397 19.2676 31.0526 18.0281 31.7301 16.9014C32.0689 16 33.1981 15.3239 34.5531 15.0986Z" fill="#00ACD4"/>
<path d="M48.7806 17.5774C49.684 16.1126 51.3778 14.9859 53.1845 14.7605C54.7653 14.5352 56.572 14.6478 57.9271 15.7746C58.7175 16.338 59.1692 17.2394 59.5079 18.1408C60.1854 16.676 61.6534 15.4366 63.2342 15.0986C65.0409 14.6478 67.1864 14.6478 68.7673 15.7746C70.3481 16.9014 71.0256 19.0422 71.0256 20.9577C71.0256 24.338 71.0256 27.4929 71.0256 30.8732C70.461 30.8732 69.8964 30.8732 69.4448 30.8732C69.4448 27.6056 69.4448 24.338 69.4448 21.1831C69.4448 19.8309 69.106 18.3662 68.0897 17.3521C67.1864 16.5633 65.8314 16.2253 64.7022 16.4507C63.3472 16.5633 62.1051 17.2394 61.2017 18.3662C60.2984 19.3802 59.9596 20.7324 59.9596 21.9718C59.9596 25.014 59.9596 28.0563 59.9596 30.9859C59.395 30.9859 58.9433 30.9859 58.3787 30.9859C58.3787 27.8309 58.3787 24.7887 58.3787 21.6338C58.3787 20.169 58.1529 18.8169 57.1366 17.6901C56.572 16.9014 55.5558 16.5633 54.5395 16.4507C52.9586 16.338 51.4907 16.676 50.2486 17.5774C49.0065 18.5915 48.5548 20.0563 48.5548 21.5211C48.5548 24.5633 48.5548 27.7183 48.5548 30.8732C47.9902 30.8732 47.4256 30.8732 46.9739 30.8732C46.9739 27.0422 46.9739 23.3239 46.9739 19.4929C46.861 18.5915 47.1998 17.4647 46.2964 16.7887C45.8448 16.5633 45.3931 16.676 44.9414 16.676C44.9414 16.2253 44.9414 15.7746 44.8285 15.3239C45.7318 15.2112 46.7481 15.0986 47.5385 15.6619C48.7806 16 48.7806 16.9014 48.7806 17.5774Z" fill="#00ACD4"/>
<path d="M74.8651 16C76.8976 14.986 79.156 14.5353 81.4143 14.7606C82.9952 14.8733 84.689 15.324 85.9311 16.4507C86.8344 17.3522 87.2861 18.5916 87.2861 19.9437C87.2861 22.5353 87.2861 25.1268 87.2861 27.7184C87.2861 28.2817 87.2861 28.9578 87.6249 29.5212C88.0765 29.9719 88.7541 29.9719 89.3187 29.8592C89.3187 30.1972 89.3187 30.6479 89.4316 30.986C88.5282 31.0986 87.399 31.2113 86.6086 30.5353C86.044 29.8592 86.044 28.8451 86.044 28.0564C85.1407 29.5212 83.5598 30.4226 81.866 30.8733C80.1722 31.2113 78.2526 31.324 76.6718 30.6479C75.3167 30.0846 74.0746 28.9578 73.7359 27.493C73.2842 25.9155 73.7359 24.1127 74.978 22.8733C76.1072 21.7465 77.688 21.1831 79.2689 21.1831C81.5273 21.0705 83.8986 21.5212 85.8182 22.5353C85.7053 21.1831 86.044 19.7184 85.4794 18.4789C84.9148 17.1268 83.334 16.5634 81.9789 16.4507C79.7206 16.2254 77.2364 16.4507 75.2038 17.5775C75.2038 16.9015 75.0909 16.4507 74.8651 16ZM75.6555 24.4508C75.0909 25.6902 75.2038 27.2677 76.1072 28.2817C76.8976 29.0705 78.0268 29.5212 79.0431 29.6338C80.6239 29.7465 82.2048 29.5212 83.5598 28.7324C84.689 28.1691 85.5923 27.0423 85.9311 25.8029C85.9311 25.1268 85.9311 24.3381 85.9311 23.7747C83.8986 22.6479 81.5273 22.0846 79.156 22.4226C77.688 22.5353 76.333 23.2113 75.6555 24.4508Z" fill="#00ACD4"/>
<path d="M94.4 17.1268C95.1904 15.8873 96.4325 15.0986 97.9004 14.7606C99.82 14.5352 101.853 14.8733 103.321 15.8873C103.095 16.338 102.982 16.7887 102.756 17.2395C101.514 16.4507 99.933 16.1127 98.465 16.2254C96.8842 16.338 95.4162 17.3521 94.8516 18.9296C94.5129 19.7183 94.5129 20.6197 94.5129 21.5211C94.5129 24.5634 94.5129 27.7183 94.5129 30.7606C93.9483 30.7606 93.3837 30.7606 92.932 30.7606C92.932 26.7042 92.932 22.6479 92.932 18.5916C92.932 18.0282 92.932 17.3521 92.5933 16.9014C92.1416 16.4507 91.4641 16.4507 90.8995 16.5634C90.7866 16.1127 90.7866 15.662 90.7866 15.2113C91.6899 15.0986 92.7062 14.9859 93.6095 15.4366C94.287 15.662 94.4 16.4507 94.4 17.1268Z" fill="#00ACD4"/>
<path d="M12.0821 0C15.3568 3.26761 18.5185 7.32394 20.4381 11.2676C21.2286 10.4789 22.019 9.69014 22.9223 9.23944C23.8257 8.78873 24.842 8.4507 25.1807 8.56338C25.2936 8.56338 25.4065 8.56338 25.5195 8.56338C25.9711 8.56338 26.4228 8.67606 26.9874 8.90141C27.8908 9.35211 28.5683 10.0282 29.5845 10.0282H36.2467C35.0046 10.0282 33.7625 10.1408 32.4075 10.2535C25.9711 10.9296 25.5195 12.9577 25.6324 15.3239C25.7453 17.1268 25.8582 19.6056 24.729 20.9577C23.8257 22.4225 22.019 23.5493 19.8735 24.4507C16.8247 25.6901 13.4372 26.1408 12.8726 26.4789C13.663 24.1127 14.7922 21.0704 16.1472 18.1408C11.2917 19.7183 3.50033 15.662 0.790283 3.94366C4.29076 4.95775 7.79124 6.19718 11.0659 7.88732C10.953 5.52113 11.1788 3.04225 12.0821 0Z" fill="#00ACD4"/>
</svg>
