<svg width="105" height="29" viewBox="0 0 105 29" fill="none" xmlns="http://www.w3.org/2000/svg">
<path d="M96.7 21.4C96.7 22.6 96.7 23.8 97.2 24.9C97.5 25.6 98.3 26.1 99 26.2C100.3 26.4 101.5 26.1 102.6 25.6C102.7 26 102.8 26.4 102.8 26.9C101.4 27.3 99.9 27.7 98.3 27.4C97.3 27.3 96.4 26.7 96 25.8C95.3 24.6 95.2 23.3 95.2 22C95.2 19.5 95.2 17.1 95.2 14.5H92V13.4H95.2V9.09998H96.6V13.4H102.3V14.5H96.6V21.4H96.7Z" fill="white"/>
<path d="M30.6 13.4C32.3 13 34.2 13 36 13.5C36.9 13.8 37.9 14.3 38.3 15.2C38.6 15.6 38.7 16.2 38.8 16.7C38.3 16.7 37.9 16.7 37.5 16.7C37.5 15.8 36.9 15.2 36.1 14.8C34.6 14.1 32.9 14.1 31.3 14.4C30.5 14.6 29.6 14.9 29 15.6C28.5 16.1 28.5 16.9 28.7 17.6C28.9 18.2 29.5 18.6 30.1 18.9C31.2 19.3 32.4 19.4 33.5 19.6C34.9 19.8 36.4 20 37.7 20.6C38.5 21 39.1 21.6 39.2 22.4C39.5 23.5 39.3 24.8 38.5 25.7C37.5 26.7 36.1 27.2 34.7 27.4C32.8 27.6 30.9 27.5 29.2 26.6C28 26 27.1 24.8 27 23.4C27.5 23.4 27.9 23.4 28.4 23.4C28.6 24.3 29.2 25.1 30 25.5C31.5 26.3 33.3 26.5 35 26.1C35.9 25.9 36.8 25.6 37.5 24.8C38.3 24 38.3 22.6 37.5 21.7C37 21.2 36.3 21 35.7 20.8C33.7 20.4 31.7 20.4 29.8 19.8C29 19.5 28.1 18.9 27.8 18.1C27.4 17.1 27.5 16 28.1 15C28.4 14.2 29.4 13.6 30.6 13.4Z" fill="white"/>
<path d="M43.2 15.6C44 14.3 45.5 13.3 47.1 13.1C48.5 12.9 50.1 13 51.3 14C52 14.5 52.4 15.3 52.7 16.1C53.3 14.8 54.6 13.7 56 13.4C57.6 13 59.5 13 60.9 14C62.3 15 62.9 16.9 62.9 18.6C62.9 21.6 62.9 24.4 62.9 27.4C62.4 27.4 61.9 27.4 61.5 27.4C61.5 24.5 61.5 21.6 61.5 18.8C61.5 17.6 61.2 16.3 60.3 15.4C59.5 14.7 58.3 14.4 57.3 14.6C56.1 14.7 55 15.3 54.2 16.3C53.4 17.2 53.1 18.4 53.1 19.5C53.1 22.2 53.1 24.9 53.1 27.5C52.6 27.5 52.2 27.5 51.7 27.5C51.7 24.7 51.7 22 51.7 19.2C51.7 17.9 51.5 16.7 50.6 15.7C50.1 15 49.2 14.7 48.3 14.6C46.9 14.5 45.6 14.8 44.5 15.6C43.4 16.5 43 17.8 43 19.1C43 21.8 43 24.6 43 27.4C42.5 27.4 42 27.4 41.6 27.4C41.6 24 41.6 20.7 41.6 17.3C41.5 16.5 41.8 15.5 41 14.9C40.6 14.7 40.2 14.8 39.8 14.8C39.8 14.4 39.8 14 39.7 13.6C40.5 13.5 41.4 13.4 42.1 13.9C43.2 14.2 43.2 15 43.2 15.6Z" fill="white"/>
<path d="M66.3 14.2C68.1 13.3 70.1 12.9 72.1 13.1C73.5 13.2 75 13.6 76.1 14.6C76.9 15.4 77.3 16.5 77.3 17.7C77.3 20 77.3 22.3 77.3 24.6C77.3 25.1 77.3 25.7 77.6 26.2C78 26.6 78.6 26.6 79.1 26.5C79.1 26.8 79.1 27.2 79.2 27.5C78.4 27.6 77.4 27.7 76.7 27.1C76.2 26.5 76.2 25.6 76.2 24.9C75.4 26.2 74 27 72.5 27.4C71 27.7 69.3 27.8 67.9 27.2C66.7 26.7 65.6 25.7 65.3 24.4C64.9 23 65.3 21.4 66.4 20.3C67.4 19.3 68.8 18.8 70.2 18.8C72.2 18.7 74.3 19.1 76 20C75.9 18.8 76.2 17.5 75.7 16.4C75.2 15.2 73.8 14.7 72.6 14.6C70.6 14.4 68.4 14.6 66.6 15.6C66.6 15 66.5 14.6 66.3 14.2ZM67 21.7C66.5 22.8 66.6 24.2 67.4 25.1C68.1 25.8 69.1 26.2 70 26.3C71.4 26.4 72.8 26.2 74 25.5C75 25 75.8 24 76.1 22.9C76.1 22.3 76.1 21.6 76.1 21.1C74.3 20.1 72.2 19.6 70.1 19.9C68.8 20 67.6 20.6 67 21.7Z" fill="white"/>
<path d="M83.6 15.2C84.3 14.1 85.4 13.4 86.7 13.1C88.4 12.9 90.2 13.2 91.5 14.1C91.3 14.5 91.2 14.9 91 15.3C89.9 14.6 88.5 14.3 87.2 14.4C85.8 14.5 84.5 15.4 84 16.8C83.7 17.5 83.7 18.3 83.7 19.1C83.7 21.8 83.7 24.6 83.7 27.3C83.2 27.3 82.7 27.3 82.3 27.3C82.3 23.7 82.3 20.1 82.3 16.5C82.3 16 82.3 15.4 82 15C81.6 14.6 81 14.6 80.5 14.7C80.4 14.3 80.4 13.9 80.4 13.5C81.2 13.4 82.1 13.3 82.9 13.7C83.5 13.9 83.6 14.6 83.6 15.2Z" fill="white"/>
<path d="M10.7 0C13.6 2.9 16.4 6.5 18.1 10C18.8 9.3 19.5 8.6 20.3 8.2C21.1 7.8 22 7.5 22.3 7.6C22.4 7.6 22.5 7.6 22.6 7.6C23 7.6 23.4 7.7 23.9 7.9C24.7 8.3 25.3 8.9 26.2 8.9H32.1C31 8.9 29.9 9 28.7 9.1C23 9.7 22.6 11.5 22.7 13.6C22.8 15.2 22.9 17.4 21.9 18.6C21.1 19.9 19.5 20.9 17.6 21.7C14.9 22.8 11.9 23.2 11.4 23.5C12.1 21.4 13.1 18.7 14.3 16.1C10 17.5 3.10001 13.9 0.700012 3.5C3.80001 4.4 6.90001 5.5 9.80001 7C9.70001 4.9 9.90001 2.7 10.7 0Z" fill="white"/>
</svg>
