<svg width="19" height="19" viewBox="0 0 19 19" fill="none" xmlns="http://www.w3.org/2000/svg">
<path d="M13.875 12.6667C13.2512 12.6667 12.6875 12.9121 12.2647 13.3056L6.67875 10.0542C6.71833 9.87212 6.75 9.69004 6.75 9.50004C6.75 9.31004 6.71833 9.12796 6.67875 8.94587L12.26 5.69212C12.6875 6.08796 13.2496 6.33337 13.875 6.33337C15.1892 6.33337 16.25 5.27254 16.25 3.95837C16.25 2.64421 15.1892 1.58337 13.875 1.58337C12.5608 1.58337 11.5 2.64421 11.5 3.95837C11.5 4.14837 11.5317 4.33046 11.5712 4.51254L5.99 7.76629C5.5625 7.37046 5.00042 7.12504 4.375 7.12504C3.06083 7.12504 2 8.18587 2 9.50004C2 10.8142 3.06083 11.875 4.375 11.875C5.00042 11.875 5.5625 11.6296 5.99 11.2338L11.5697 14.4939C11.5251 14.6731 11.5017 14.857 11.5 15.0417C11.5 15.5114 11.6393 15.9706 11.9003 16.3612C12.1612 16.7518 12.5322 17.0562 12.9661 17.2359C13.4001 17.4157 13.8776 17.4627 14.3383 17.3711C14.799 17.2794 15.2222 17.0532 15.5544 16.7211C15.8865 16.3889 16.1127 15.9658 16.2044 15.505C16.296 15.0443 16.249 14.5668 16.0692 14.1328C15.8895 13.6989 15.585 13.3279 15.1945 13.067C14.8039 12.806 14.3447 12.6667 13.875 12.6667Z" fill="#5F6B7C"/>
</svg>
