<svg width="18" height="14" viewBox="0 0 18 14" fill="none" xmlns="http://www.w3.org/2000/svg">
<path fill-rule="evenodd" clip-rule="evenodd" d="M15.75 1.053C16.488 1.25552 17.0693 1.85226 17.2665 2.61006C17.625 3.98349 17.625 6.84916 17.625 6.84916C17.625 6.84916 17.625 9.71472 17.2665 11.0883C17.0693 11.8461 16.488 12.4428 15.75 12.6454C14.4125 13.0134 9.04869 13.0134 9.04869 13.0134C9.04869 13.0134 3.68489 13.0134 2.34728 12.6454C1.60923 12.4428 1.02799 11.8461 0.830735 11.0883C0.472382 9.71472 0.472382 6.84916 0.472382 6.84916C0.472382 6.84916 0.472382 3.98349 0.830735 2.61006C1.02799 1.85226 1.60923 1.25552 2.34728 1.053C3.68489 0.684937 9.04869 0.684937 9.04869 0.684937C9.04869 0.684937 14.4125 0.684937 15.75 1.053ZM7.44177 4.43651V9.7967L11.7299 7.11671L7.44177 4.43651Z" fill="#9EA6B1"/>
</svg>
